<?xml version="1.0" standalone="no"?>
<!DOCTYPE svg PUBLIC "-//W3C//DTD SVG 20010904//EN"
 "http://www.w3.org/TR/2001/REC-SVG-20010904/DTD/svg10.dtd">
<svg version="1.0" xmlns="http://www.w3.org/2000/svg"
 width="721.000000pt" height="721.000000pt" viewBox="0 0 721.000000 721.000000"
 preserveAspectRatio="xMidYMid meet">
<metadata>
Created by potrace 1.11, written by Peter Selinger 2001-2013
</metadata>
<g transform="translate(0.000000,721.000000) scale(0.100000,-0.100000)"
fill="#000000" stroke="none">
<path d="M3724 6828 c-13 -20 -41 -198 -105 -663 -40 -295 -48 -367 -42 -382
3 -7 0 -13 -6 -13 -7 0 -11 -21 -11 -55 0 -30 -4 -87 -10 -127 -21 -160 -29
-252 -24 -257 3 -3 13 0 22 5 13 9 16 23 14 62 -4 54 3 76 20 66 7 -4 6 -9 -2
-14 -6 -4 -10 -20 -8 -36 l4 -29 11 25 c10 21 12 15 12 -47 1 -39 -3 -73 -9
-75 -6 -2 -4 -19 5 -43 l14 -40 1 83 c0 66 3 82 15 82 12 0 15 -16 15 -80 0
-52 -4 -80 -11 -80 -8 0 -9 -24 -4 -80 6 -72 5 -80 -10 -80 -12 0 -15 -5 -11
-16 3 -9 9 -27 12 -40 3 -13 10 -24 15 -24 11 0 9 -42 27 450 5 157 15 312 21
345 11 64 25 466 23 650 -1 71 2 103 8 90 6 -14 9 12 10 80 1 55 5 134 9 175
8 80 8 89 -5 68z"/>
<path d="M3775 5973 c-10 -971 -11 -1016 -30 -1588 -32 -939 -34 -1024 -34
-1336 -1 -260 -4 -319 -15 -328 -9 -7 -17 -8 -20 -3 -3 6 -5 185 -4 398 0 214
1 522 2 684 1 162 -2 356 -6 430 -12 240 -28 474 -37 530 -8 54 -9 55 -10 13
0 -24 -4 -43 -8 -43 -10 0 -33 -49 -33 -68 0 -24 -43 -93 -54 -87 -6 3 -18 8
-27 11 -21 7 -39 47 -39 85 0 17 -4 28 -9 25 -19 -12 -18 -62 4 -120 48 -130
50 -161 49 -936 -1 -818 -17 -1173 -60 -1311 -19 -60 -61 -125 -91 -138 -34
-16 -108 -14 -150 4 -51 22 -55 19 -21 -15 16 -17 34 -28 39 -25 4 3 22 -1 38
-10 17 -8 45 -15 63 -15 19 0 28 -4 22 -9 -19 -17 -60 -20 -88 -6 -33 17 -56
19 -56 5 0 -5 10 -10 23 -10 13 0 32 -7 43 -15 13 -10 46 -14 107 -15 57 0 98
-5 116 -15 16 -8 31 -12 33 -9 8 7 58 -14 58 -26 0 -5 -3 -9 -7 -8 -5 1 -28
-2 -53 -5 -85 -13 -179 -14 -177 -4 1 6 -7 13 -18 15 -11 2 -22 7 -25 11 -3 4
-45 27 -95 52 -49 24 -91 47 -93 52 -2 4 -10 7 -18 7 -8 0 -14 3 -14 8 0 4
-12 13 -27 19 -16 7 -48 31 -72 53 -24 22 -48 40 -53 40 -5 0 -12 8 -15 18 -4
9 -17 25 -30 35 -13 10 -37 40 -55 65 -18 26 -38 53 -45 60 -7 7 -13 19 -13
27 0 7 -4 15 -8 17 -15 6 -51 64 -58 94 -4 16 -11 35 -17 42 -6 7 -21 48 -33
90 -13 42 -23 67 -23 55 -1 -13 -5 -23 -11 -23 -12 0 -12 -2 -1 38 6 20 6 42
1 55 -5 12 -9 16 -9 9 -1 -7 -5 -10 -11 -7 -14 9 -13 42 2 47 9 3 9 12 0 37
-7 18 -9 37 -6 42 3 5 0 25 -6 44 -6 19 -13 82 -15 139 -3 106 -10 140 -25
116 -4 -7 -13 -9 -20 -5 -12 7 -9 50 5 88 4 10 3 17 -4 17 -7 0 -14 -8 -17
-17 -3 -10 -13 -33 -22 -51 -15 -30 -20 -33 -50 -27 -21 4 -39 1 -49 -7 -14
-11 -16 -10 -11 9 4 15 2 20 -8 16 -7 -2 -14 -19 -16 -36 -3 -31 -4 -31 -9 8
-5 33 -2 43 19 62 14 13 27 21 30 18 3 -3 11 0 19 7 7 6 16 8 20 4 9 -8 43 24
43 41 0 17 15 17 30 -2 14 -17 40 -3 40 22 0 8 5 11 10 8 6 -4 10 6 10 22 0
22 -2 25 -10 13 -15 -23 -12 -3 4 28 7 15 17 67 21 115 15 182 20 54 11 -248
-4 -151 10 -305 40 -422 14 -54 29 -120 34 -146 5 -27 13 -54 18 -60 6 -7 13
-28 17 -47 4 -19 17 -55 30 -80 12 -25 29 -58 36 -74 24 -51 34 -66 41 -66 5
0 8 -5 8 -11 0 -6 13 -28 30 -49 17 -21 30 -43 30 -49 0 -6 6 -11 13 -11 6 0
31 -21 55 -45 24 -25 48 -45 52 -45 5 0 28 -18 50 -40 22 -22 47 -40 54 -40 8
0 19 -7 26 -15 13 -15 50 -21 50 -7 0 4 -23 18 -51 32 -54 26 -119 79 -119 95
0 6 -10 21 -23 35 -12 14 -21 33 -19 42 2 12 -2 15 -16 11 -11 -3 -25 2 -33
12 -8 9 -22 24 -31 33 -20 18 -24 42 -8 42 16 0 11 19 -10 37 -11 10 -20 22
-20 27 0 5 -18 46 -39 90 -21 45 -44 101 -51 126 -7 25 -18 63 -25 85 -18 57
-63 258 -74 335 -6 39 -8 285 -5 605 3 316 1 565 -4 600 -9 56 -10 57 -11 18
0 -24 -6 -43 -12 -43 -15 0 -7 318 25 990 32 670 34 750 25 756 -5 3 -11 -5
-14 -18 -13 -61 -54 -278 -60 -318 -3 -25 -10 -65 -15 -90 -12 -58 -76 -415
-90 -500 -16 -99 -37 -217 -54 -305 -35 -175 -38 -205 -21 -280 26 -114 29
-217 11 -506 -28 -458 -42 -579 -81 -684 -39 -107 -40 -101 55 -545 6 -30 14
-69 17 -87 4 -23 9 -30 20 -26 13 5 13 3 4 -16 -14 -26 0 -71 61 -191 21 -41
38 -79 38 -84 0 -4 10 -20 23 -35 12 -16 36 -45 52 -67 35 -45 118 -140 150
-170 66 -65 223 -180 355 -262 124 -77 213 -146 242 -188 24 -34 28 -54 38
-169 11 -120 7 -379 -6 -495 -13 -105 -75 -185 -152 -195 -26 -3 -58 -8 -72
-12 -39 -8 -100 -4 -155 11 -56 15 -197 16 -201 1 -7 -19 14 -39 28 -28 22 17
77 23 106 11 38 -17 92 -69 92 -90 0 -19 -28 -23 -64 -9 -10 4 -40 4 -66 1
-48 -6 -49 -6 -70 32 -32 57 -54 51 -57 -16 -4 -81 -3 -81 221 -81 l191 0 74
-38 c91 -47 102 -58 135 -128 21 -46 26 -70 26 -137 0 -44 -4 -84 -10 -87 -15
-9 -12 -25 3 -25 11 0 13 -23 10 -111 -1 -63 -8 -118 -14 -125 -10 -12 6 -14
92 -14 l104 0 -3 59 c-3 50 1 70 27 124 17 36 31 72 31 81 0 30 20 16 39 -27
29 -64 30 -72 21 -111 -4 -21 -4 -36 1 -36 12 0 11 -11 -1 -30 -9 -13 -12 -13
-21 3 -13 21 -21 17 -47 -26 l-20 -34 84 -2 85 -1 -3 257 c-3 300 -7 288 102
346 110 59 122 61 279 41 154 -19 202 -15 223 19 34 51 29 124 -10 153 -21 16
-141 18 -209 4 -96 -20 -174 -18 -241 6 -74 28 -83 36 -122 110 -29 53 -30 62
-30 178 0 269 31 519 71 585 10 17 41 43 69 58 28 16 73 42 99 58 27 17 67 41
91 55 23 14 54 35 68 47 25 20 25 22 7 23 -15 0 -10 7 20 25 22 14 48 25 57
25 9 0 32 14 50 31 18 17 47 36 63 43 50 22 183 148 255 245 88 117 168 318
215 541 29 136 49 229 67 302 10 42 9 54 -14 115 -52 138 -48 106 -69 668 -12
325 -7 450 23 582 10 46 7 84 -26 320 -20 147 -41 293 -46 323 -8 50 -17 109
-66 435 -8 55 -17 117 -20 139 -4 27 -9 35 -15 25 -5 -9 -9 11 -9 54 0 37 4
67 8 67 5 0 9 21 10 46 0 56 -10 47 -31 -26 -19 -64 -22 -163 -37 -1175 -22
-1410 -27 -1554 -54 -1705 -14 -74 -31 -157 -39 -185 -21 -73 -58 -185 -73
-222 -8 -17 -14 -34 -14 -38 0 -4 -15 -33 -34 -65 -33 -56 -33 -58 -15 -74 10
-9 19 -23 19 -31 0 -14 -138 -155 -152 -155 -4 0 -30 -20 -57 -44 -27 -24 -60
-47 -73 -51 -13 -4 -26 -12 -29 -17 -4 -6 -15 -8 -25 -6 -15 3 -7 13 38 48 32
25 53 47 48 48 -6 2 -17 -1 -24 -7 -24 -20 -138 -51 -189 -51 -70 0 -109 28
-147 108 -20 42 -27 68 -22 79 9 15 -8 148 -21 171 -5 6 -6 16 -3 20 3 5 7
274 10 598 5 610 16 840 55 1139 11 83 25 170 31 195 6 25 14 56 17 70 3 14
12 34 20 46 10 17 11 49 3 170 -5 82 -19 331 -30 554 -21 410 -52 912 -69
1095 -15 156 -32 309 -35 312 -2 2 -6 -338 -11 -754z m948 -451 c3 -24 1 -40
-4 -36 -5 3 -9 24 -9 46 0 51 5 47 13 -10z m4 -224 c-3 -8 -6 -5 -6 6 -1 11 2
17 5 13 3 -3 4 -12 1 -19z m10 -280 c-2 -29 -3 -6 -3 52 0 58 1 81 3 53 2 -29
2 -77 0 -105z m-2180 -80 c-3 -7 -5 -2 -5 12 0 14 2 19 5 13 2 -7 2 -19 0 -25z
m-37 -28 c0 -11 4 -20 9 -20 5 0 11 -10 14 -22 2 -13 8 -31 12 -40 5 -13 2
-18 -11 -18 -18 -1 -18 -1 -1 -14 24 -19 21 -40 -8 -56 -18 -9 -23 -19 -19
-34 3 -14 -6 -33 -28 -59 -18 -20 -36 -37 -40 -37 -12 0 -9 67 7 145 30 155
37 175 56 175 5 0 9 -9 9 -20z m2227 -12 c-3 -7 -5 -2 -5 12 0 14 2 19 5 13 2
-7 2 -19 0 -25z m0 -75 c-3 -10 -5 -2 -5 17 0 19 2 27 5 18 2 -10 2 -26 0 -35z
m0 -110 c-2 -16 -4 -3 -4 27 0 30 2 43 4 28 2 -16 2 -40 0 -55z m-2146 -66
c-4 -4 -8 14 -8 40 l-1 48 8 -40 c4 -22 5 -43 1 -48z m28 -424 l-2 -68 -7 55
c-6 50 -4 80 6 80 2 0 3 -30 3 -67z m2128 -115 c-2 -13 -4 -3 -4 22 0 25 2 35
4 23 2 -13 2 -33 0 -45z m-2127 35 c0 -5 -5 -15 -10 -23 -8 -12 -10 -11 -10 8
0 12 5 22 10 22 6 0 10 -3 10 -7z m2137 -335 c-2 -24 -4 -5 -4 42 0 47 2 66 4
43 2 -24 2 -62 0 -85z m3 -143 l-7 -60 -1 80 c0 51 2 73 8 60 4 -12 4 -48 0
-80z m19 -412 c0 -69 -3 -123 -8 -123 -10 0 -20 434 -11 460 6 18 17 -172 19
-337z m-2329 -3 c0 -5 -4 -10 -10 -10 -5 0 -10 5 -10 10 0 6 5 10 10 10 6 0
10 -4 10 -10z m-50 -40 c0 -12 -29 -20 -35 -10 -9 15 4 30 20 23 8 -3 15 -9
15 -13z m52 -37 c22 -20 24 -63 3 -63 -18 0 -20 -16 -4 -26 6 -3 15 -1 19 7
11 17 17 -26 25 -161 4 -58 13 -136 21 -175 14 -70 18 -126 7 -95 -9 25 -45
60 -56 53 -5 -3 -6 4 -2 18 18 57 18 55 6 39 -6 -8 -11 -10 -12 -5 0 6 -5 -1
-9 -15 l-8 -25 -1 27 c-1 15 -5 30 -11 33 -5 3 -10 30 -9 58 0 35 3 45 8 33 5
-13 10 -16 15 -8 4 6 -1 23 -10 37 -11 17 -17 48 -18 88 -1 61 -13 87 -29 64
-5 -7 -5 -1 -1 13 4 14 11 27 15 28 15 6 10 30 -8 40 -11 7 -14 15 -9 28 7 18
9 18 23 -3 9 -13 20 -23 26 -23 5 0 3 8 -6 18 -10 10 -17 22 -17 25 0 13 23 7
42 -10z m2315 -97 c-8 -56 -38 -190 -48 -217 -5 -14 -11 -36 -13 -50 -8 -72
-105 -327 -128 -337 -5 -2 -8 -12 -8 -22 0 -10 -3 -20 -7 -22 -5 -1 -34 -37
-66 -80 -92 -122 -200 -203 -362 -273 -91 -39 -195 -58 -195 -36 0 6 12 13 28
16 80 17 145 41 209 78 112 66 193 121 193 133 0 6 11 17 25 24 14 7 25 19 25
27 0 7 5 13 11 13 17 0 94 101 148 194 46 80 102 233 120 328 6 29 18 85 27
123 9 39 18 87 21 107 3 22 9 35 15 32 5 -4 8 -20 5 -38z m-100 -88 c-3 -7 -5
-2 -5 12 0 14 2 19 5 13 2 -7 2 -19 0 -25z m-10 -110 c-3 -8 -6 -5 -6 6 -1 11
2 17 5 13 3 -3 4 -12 1 -19z m-2100 -25 c-3 -10 -5 -4 -5 12 0 17 2 24 5 18 2
-7 2 -21 0 -30z m2093 -53 c0 -5 -2 -10 -4 -10 -3 0 -8 5 -11 10 -3 6 -1 10 4
10 6 0 11 -4 11 -10z m-10 -29 c0 -6 -4 -13 -10 -16 -5 -3 -10 1 -10 9 0 9 5
16 10 16 6 0 10 -4 10 -9z m-34 -82 c-9 -20 -15 -27 -16 -16 0 20 19 61 26 54
2 -2 -2 -19 -10 -38z m-906 -71 c0 -44 -4 -60 -15 -65 -9 -3 -18 -3 -21 0 -8
7 -7 79 1 116 5 26 9 30 21 20 9 -7 14 -32 14 -71z m-949 32 c5 0 9 -8 9 -17
-1 -16 -2 -16 -15 1 -8 11 -14 27 -14 35 1 13 2 12 6 -1 2 -10 9 -18 14 -18z
m-271 4 c0 -2 -7 -4 -15 -4 -8 0 -15 4 -15 10 0 5 7 7 15 4 8 -4 15 -8 15 -10z
m168 -29 c-3 -3 -9 2 -12 12 -6 14 -5 15 5 6 7 -7 10 -15 7 -18z m-30 -144
c24 -46 50 -91 58 -98 16 -17 18 -33 4 -33 -6 0 -16 11 -22 25 -6 14 -15 25
-20 25 -4 0 -8 11 -8 25 0 14 -5 25 -10 25 -14 0 -69 118 -75 161 l-5 34 17
-40 c9 -22 37 -78 61 -124z m1923 82 c-17 -26 -31 -40 -31 -31 0 9 6 23 13 30
7 7 19 29 27 48 10 23 16 29 18 18 2 -9 -11 -38 -27 -65z m-50 4 c-10 -9 -11
-8 -5 6 3 10 9 15 12 12 3 -3 0 -11 -7 -18z m-1688 -17 c8 -30 8 -30 0 -30
-11 0 -23 50 -13 50 4 0 10 -9 13 -20z m899 -69 c5 -18 8 -62 6 -99 -3 -59 -5
-67 -24 -70 -19 -3 -22 3 -28 68 -11 107 25 185 46 101z m-852 -7 c0 -9 -5
-14 -12 -12 -18 6 -21 28 -4 28 9 0 16 -7 16 -16z m1630 6 c0 -5 -4 -10 -10
-10 -5 0 -10 5 -10 10 0 6 5 10 10 10 6 0 10 -4 10 -10z m-30 -15 c16 -19 3
-40 -16 -24 -15 13 -19 39 -5 39 5 0 14 -7 21 -15z m160 -124 c0 -5 -7 -14
-15 -21 -16 -14 -18 -10 -9 14 6 17 24 22 24 7z m-897 -65 c9 -22 29 -177 28
-211 -1 -32 -3 -49 -14 -105 -3 -19 -11 -71 -18 -114 -10 -65 -14 -75 -21 -55
-5 13 -12 64 -15 113 -5 90 -16 115 -53 129 -12 4 -11 6 3 6 9 1 17 6 17 11 0
6 -8 10 -17 11 -14 0 -14 2 4 9 27 11 32 29 36 118 3 64 17 102 37 102 4 0 10
-6 13 -14z m-931 -16 c12 -11 19 -22 16 -25 -2 -3 -15 6 -28 20 -28 30 -18 34
12 5z m1727 -37 c-13 -15 -29 -33 -36 -40 -6 -7 -16 -13 -22 -13 -6 0 -11 -4
-11 -8 0 -9 -83 -72 -94 -72 -3 0 -1 9 6 20 7 11 16 20 20 20 5 0 29 20 56 45
26 25 53 45 60 45 6 0 12 7 12 15 0 8 8 15 17 15 14 0 12 -5 -8 -27z m-1684
-3 c3 -5 -1 -10 -10 -10 -9 0 -13 5 -10 10 3 6 8 10 10 10 2 0 7 -4 10 -10z
m589 -25 c-27 -35 -35 -40 -47 -28 -9 9 43 63 60 63 9 0 5 -12 -13 -35z m16
-60 c-14 -17 -40 -20 -40 -5 0 11 42 31 49 24 2 -2 -2 -10 -9 -19z m-65 -5 c3
-5 1 -10 -4 -10 -6 0 -11 5 -11 10 0 6 2 10 4 10 3 0 8 -4 11 -10z m-412 -20
c14 -11 30 -20 36 -20 6 0 11 -4 11 -10 0 -5 -2 -10 -3 -10 -11 0 -67 33 -77
45 -18 22 3 18 33 -5z m1117 11 c0 -14 -76 -40 -100 -34 -18 5 -14 9 27 24 56
20 73 23 73 10z m-1040 -61 c0 -5 -2 -10 -4 -10 -3 0 -8 5 -11 10 -3 6 -1 10
4 10 6 0 11 -4 11 -10z m1280 0 c0 -5 -5 -10 -11 -10 -5 0 -7 5 -4 10 3 6 8
10 11 10 2 0 4 -4 4 -10z m-1245 -28 c-3 -3 -11 0 -18 7 -9 10 -8 11 6 5 10
-3 15 -9 12 -12z m1190 -2 c-19 -21 -45 -27 -45 -11 0 7 36 26 59 30 2 1 -4
-8 -14 -19z m-1280 -1 c12 -19 -5 -23 -22 -6 -16 16 -16 17 -1 17 9 0 20 -5
23 -11z m178 -35 c4 -8 17 -14 27 -14 11 0 20 -4 20 -9 0 -15 -44 0 -75 26
-29 24 -29 24 -5 18 14 -4 29 -14 33 -21z m1047 8 c0 -8 -63 -42 -78 -42 -4 0
7 11 23 25 30 24 55 32 55 17z m-945 -52 c3 -5 21 -17 40 -26 19 -9 35 -20 35
-25 0 -14 -20 -10 -48 9 -15 10 -35 22 -44 25 -10 4 -18 11 -18 17 0 13 27 13
35 0z m-97 -38 c23 -13 42 -28 42 -34 0 -6 -12 -2 -27 8 -16 10 -40 24 -55 32
-32 15 -48 35 -21 25 10 -3 37 -17 61 -31z m1029 12 c-3 -3 -12 -4 -19 -1 -8
3 -5 6 6 6 11 1 17 -2 13 -5z m-37 -11 c0 -5 -23 -21 -51 -38 -28 -16 -64 -41
-80 -54 -17 -13 -33 -20 -37 -17 -3 4 -2 10 4 14 6 4 27 20 47 36 62 48 117
76 117 59z m-774 -60 c-7 -7 -26 7 -26 19 0 6 6 6 15 -2 9 -7 13 -15 11 -17z
m291 -625 c-3 -8 -6 -5 -6 6 -1 11 2 17 5 13 3 -3 4 -12 1 -19z m-180 -395
c13 -15 23 -31 23 -36 0 -4 -15 -21 -32 -37 -38 -34 -22 -40 37 -16 l35 15 11
-45 c6 -24 16 -44 21 -44 5 0 6 -10 3 -21 -5 -15 -4 -19 4 -15 22 14 11 -23
-14 -49 -25 -24 -41 -33 -31 -17 6 11 -35 83 -54 93 -28 14 -55 22 -90 26 -19
2 -57 10 -85 18 -27 7 -77 16 -109 20 -34 3 -71 14 -87 26 -15 10 -31 19 -36
19 -10 1 -53 36 -53 44 0 3 11 6 25 6 14 0 25 -4 25 -9 0 -5 24 -9 53 -9 41 1
69 -7 128 -35 71 -34 184 -63 149 -38 -8 6 -22 11 -31 11 -26 0 -127 49 -132
64 -4 11 2 12 31 5 52 -12 92 -12 72 1 -12 8 -11 12 7 32 32 34 99 30 130 -9z
m192 -62 c2 -42 -1 -50 -24 -65 -14 -9 -25 -15 -25 -13 0 2 7 26 15 55 9 28
15 54 14 59 -1 4 -1 15 0 23 3 32 17 -11 20 -59z m571 20 c0 -5 -8 -19 -18
-31 -19 -24 -131 -53 -169 -43 -13 3 -37 0 -54 -6 -73 -25 -34 19 53 61 47 24
188 37 188 19z m170 -19 c13 -30 5 -61 -18 -61 -9 0 -50 -5 -91 -11 -99 -14
-108 -4 -47 55 44 43 50 46 96 44 41 -2 50 -6 60 -27z m-410 13 c0 -2 -19 -14
-42 -26 -30 -15 -52 -20 -81 -16 -60 8 -67 24 -16 34 52 10 139 15 139 8z
m-315 -152 c4 -21 9 -47 10 -58 2 -11 7 -37 13 -57 8 -30 8 -36 -4 -31 -8 3
-14 11 -14 19 0 29 -28 12 -59 -36 -18 -27 -36 -52 -42 -55 -11 -8 -32 43 -23
57 4 6 1 13 -5 17 -7 5 4 26 32 63 24 31 50 70 57 87 17 41 26 39 35 -6z m18
-213 c15 -28 27 -63 26 -78 0 -15 2 -37 6 -49 10 -33 -7 -28 -34 8 -12 16 -26
29 -31 27 -5 -2 -21 -27 -37 -57 -31 -60 -60 -82 -49 -37 3 14 2 35 -4 47 -9
16 -4 33 26 92 38 76 52 97 63 97 4 0 19 -23 34 -50z"/>
<path d="M2451 2794 c0 -11 3 -14 6 -6 3 7 2 16 -1 19 -3 4 -6 -2 -5 -13z"/>
<path d="M3512 5187 c-1 -27 -7 -57 -13 -68 -5 -11 -9 -32 -7 -47 7 -49 29 52
25 111 l-3 52 -2 -48z"/>
<path d="M3486 5005 c-3 -9 -6 -22 -5 -28 0 -7 5 -1 10 12 5 13 8 26 5 28 -2
2 -6 -3 -10 -12z"/>
<path d="M3603 4890 c0 -47 2 -66 4 -42 2 23 2 61 0 85 -2 23 -4 4 -4 -43z"/>
<path d="M3462 4828 c-7 -46 -8 -86 -3 -91 5 -5 11 24 15 65 4 40 9 81 12 91
3 9 1 17 -4 17 -5 0 -14 -37 -20 -82z"/>
<path d="M4371 2414 c-12 -15 -21 -31 -21 -35 0 -5 -6 -9 -13 -9 -6 0 -18 -13
-25 -30 -8 -16 -20 -30 -28 -30 -8 0 -14 -4 -14 -10 0 -14 19 -12 33 3 7 6 30
33 51 59 21 26 42 45 47 42 5 -3 9 2 9 10 0 27 -18 27 -39 0z"/>
<path d="M3060 2264 c0 -8 25 -28 54 -45 28 -17 11 6 -24 31 -17 12 -30 18
-30 14z"/>
<path d="M4270 1970 c0 -5 5 -10 10 -10 6 0 10 5 10 10 0 6 -4 10 -10 10 -5 0
-10 -4 -10 -10z"/>
</g>
</svg>
