<svg xmlns="http://www.w3.org/2000/svg" viewBox="0 0 71.17 71.14"><defs><style>.cls-1{fill:#e05366;}</style></defs><title>Asset 1</title><g id="Layer_2" data-name="Layer 2"><g id="Capa_1" data-name="Capa 1"><path class="cls-1" d="M36.84,71.1c-5.21,0-8.76.1-12.31,0a44,44,0,0,1-9.5-.91A18.85,18.85,0,0,1,4.87,64,20,20,0,0,1,.48,53.09,84.39,84.39,0,0,1,0,44c0-6,0-12,0-18A62.28,62.28,0,0,1,.6,17a18.77,18.77,0,0,1,8-13.16A19.76,19.76,0,0,1,17.82.5C25.05-.26,32.31.09,39.55,0c3.1,0,6.19,0,9.28.13a31,31,0,0,1,9.69,1.59A18.29,18.29,0,0,1,67,8.06a20.09,20.09,0,0,1,3.78,10.66c.7,9.23.34,18.47.32,27.71a43.72,43.72,0,0,1-.65,8.47A19.26,19.26,0,0,1,64.8,65.54,18.78,18.78,0,0,1,56,70.17a36.16,36.16,0,0,1-6.13.75C45,71.22,40.08,71.05,36.84,71.1ZM64.57,35.58c0-4.38.07-8.75-.13-13.12A26.79,26.79,0,0,0,63.61,16a12.37,12.37,0,0,0-3.45-5.69,13.74,13.74,0,0,0-8.4-3.36c-3.33-.32-6.69-.33-10-.35-5.72,0-11.43-.07-17.14.09a48.69,48.69,0,0,0-6.83.48,12.42,12.42,0,0,0-8.09,4.57,14.72,14.72,0,0,0-2.78,7.86c-.27,2.74-.28,5.51-.31,8.26-.08,6.91-.1,13.83.1,20.75a28.68,28.68,0,0,0,.68,6,12.24,12.24,0,0,0,4.28,6.9,13.92,13.92,0,0,0,7.18,2.77,69.19,69.19,0,0,0,8.14.36c7.07,0,14.15.12,21.22-.1A35.1,35.1,0,0,0,53.59,64a12.71,12.71,0,0,0,7.3-3.82A13.1,13.1,0,0,0,64,53.63a54.36,54.36,0,0,0,.58-8.83C64.64,41.73,64.57,38.65,64.57,35.58Z"/><path class="cls-1" d="M35.48,53.86a18.29,18.29,0,1,1,18.39-18.3A18.27,18.27,0,0,1,35.48,53.86Zm.1-6.53A11.74,11.74,0,1,0,23.83,35.65,11.74,11.74,0,0,0,35.58,47.33Z"/><path class="cls-1" d="M58.82,16.65A4.3,4.3,0,0,1,54.53,21a4.38,4.38,0,0,1-4.37-4.3,4.34,4.34,0,0,1,4.34-4.37A4.22,4.22,0,0,1,58.82,16.65Z"/></g></g></svg>