<svg xmlns="http://www.w3.org/2000/svg" viewBox="0 0 73.43 58.74"><defs><style>.cls-1{fill:#55aded;}</style></defs><title>Asset 3</title><g id="Layer_2" data-name="Layer 2"><g id="Capa_1" data-name="Capa 1"><path class="cls-1" d="M73.43,7a30.15,30.15,0,0,1-8.65,2.34A14.94,14.94,0,0,0,71.4,1.08a30.26,30.26,0,0,1-9.57,3.6A15.14,15.14,0,0,0,50.84,0,14.94,14.94,0,0,0,35.78,14.83a14.54,14.54,0,0,0,.39,3.38,43,43,0,0,1-31-15.5,14.56,14.56,0,0,0-2,7.46,14.77,14.77,0,0,0,6.7,12.34A15.21,15.21,0,0,1,3,20.66v.18a14.59,14.59,0,0,0,1,5.38,15,15,0,0,0,11,9.17,15.71,15.71,0,0,1-4,.52,15.52,15.52,0,0,1-2.83-.27A15,15,0,0,0,22.31,45.93,30.46,30.46,0,0,1,3.6,52.28a32.85,32.85,0,0,1-3.6-.2,43.21,43.21,0,0,0,23.09,6.66c23.55,0,38-16.32,41.84-33.24a40.44,40.44,0,0,0,1-8.95c0-.64,0-1.28,0-1.92A30.29,30.29,0,0,0,73.43,7Z"/></g></g></svg>